<svg xmlns="http://www.w3.org/2000/svg" width="1920" height="1080"><path d="M251,1301L-142,1329L418,1312Z" fill="#81838e" stroke="#81838e" stroke-width="1.51"/><path d="M418,1312L-142,1329L574,1320Z" fill="#79808e" stroke="#79808e" stroke-width="1.51"/><path d="M574,1320L-142,1329L834,1333Z" fill="#6d7b8d" stroke="#6d7b8d" stroke-width="1.51"/><path d="M1005,1310L834,1333L1367,1318Z" fill="#2b6293" stroke="#2b6293" stroke-width="1.51"/><path d="M734,-263L1160,-220L1498,-236Z" fill="#a6ceca" stroke="#a6ceca" stroke-width="1.51"/><path d="M1367,1318L834,1333L1614,1336Z" fill="#1d568f" stroke="#1d568f" stroke-width="1.51"/><path d="M1498,-236L1835,-199L1902,-200Z" fill="#9c9bb6" stroke="#9c9bb6" stroke-width="1.51"/><path d="M1769,1291L1614,1336L1990,1339Z" fill="#1a307e" stroke="#1a307e" stroke-width="1.51"/><path d="M2040,91L2033,244L2067,426Z" fill="#627994" stroke="#627994" stroke-width="1.51"/><path d="M1983,826L2058,991L2090,798Z" fill="#1f4b8f" stroke="#1f4b8f" stroke-width="1.51"/><path d="M2090,798L2058,991L2106,1107Z" fill="#1a3e86" stroke="#1a3e86" stroke-width="1.51"/><path d="M1498,-236L1902,-200L2132,-190Z" fill="#9b93b2" stroke="#9b93b2" stroke-width="1.51"/><path d="M2077,-71L2040,91L2132,-190Z" fill="#86848e" stroke="#86848e" stroke-width="1.51"/><path d="M2040,91L2067,426L2132,-190Z" fill="#777f90" stroke="#777f90" stroke-width="1.51"/><path d="M1898,698L2090,798L2135,730Z" fill="#225a97" stroke="#225a97" stroke-width="1.51"/><path d="M2039,572L1898,698L2135,730Z" fill="#2b619a" stroke="#2b619a" stroke-width="1.51"/><path d="M2067,426L2039,572L2135,730Z" fill="#2f6694" stroke="#2f6694" stroke-width="1.51"/><path d="M2132,-190L2067,426L2135,730Z" fill="#51738e" stroke="#51738e" stroke-width="1.51"/><path d="M2090,798L2106,1107L2135,730Z" fill="#1b4789" stroke="#1b4789" stroke-width="1.51"/><path d="M1902,-200L2077,-71L2132,-190Z" fill="#8e889a" stroke="#8e889a" stroke-width="1.51"/><path d="M1937,592L1898,698L2039,572Z" fill="#3368a1" stroke="#3368a1" stroke-width="1.51"/><path d="M2033,244L1950,408L2067,426Z" fill="#517599" stroke="#517599" stroke-width="1.51"/><path d="M1930,-6L2040,91L2077,-71Z" fill="#858695" stroke="#858695" stroke-width="1.51"/><path d="M1898,698L1983,826L2090,798Z" fill="#24599b" stroke="#24599b" stroke-width="1.51"/><path d="M1949,1089L2079,1263L2106,1107Z" fill="#1c2d81" stroke="#1c2d81" stroke-width="1.51"/><path d="M2058,991L1949,1089L2106,1107Z" fill="#1d3786" stroke="#1d3786" stroke-width="1.51"/><path d="M1934,280L1950,408L2033,244Z" fill="#5c799d" stroke="#5c799d" stroke-width="1.51"/><path d="M1930,144L2033,244L2040,91Z" fill="#758198" stroke="#758198" stroke-width="1.51"/><path d="M1950,408L2039,572L2067,426Z" fill="#42709b" stroke="#42709b" stroke-width="1.51"/><path d="M1983,826L1911,972L2058,991Z" fill="#204793" stroke="#204793" stroke-width="1.51"/><path d="M1902,-200L1930,-6L2077,-71Z" fill="#908a9b" stroke="#908a9b" stroke-width="1.51"/><path d="M1949,1089L1990,1339L2079,1263Z" fill="#192a7a" stroke="#192a7a" stroke-width="1.51"/><path d="M1950,408L1937,592L2039,572Z" fill="#3b6fa0" stroke="#3b6fa0" stroke-width="1.51"/><path d="M1911,972L1949,1089L2058,991Z" fill="#203e8f" stroke="#203e8f" stroke-width="1.51"/><path d="M1949,1089L1769,1291L1990,1339Z" fill="#1d2e83" stroke="#1d2e83" stroke-width="1.51"/><path d="M1930,144L1934,280L2033,244Z" fill="#6c7f9c" stroke="#6c7f9c" stroke-width="1.51"/><path d="M1930,-6L1930,144L2040,91Z" fill="#82869b" stroke="#82869b" stroke-width="1.51"/><path d="M1776,1128L1769,1291L1949,1089Z" fill="#253693" stroke="#253693" stroke-width="1.51"/><path d="M1731,486L1937,592L1950,408Z" fill="#4675aa" stroke="#4675aa" stroke-width="1.51"/><path d="M1757,801L1911,972L1983,826Z" fill="#2852a0" stroke="#2852a0" stroke-width="1.51"/><path d="M1898,698L1757,801L1983,826Z" fill="#2a5ea7" stroke="#2a5ea7" stroke-width="1.51"/><path d="M1902,-200L1835,-199L1930,-6Z" fill="#978fa8" stroke="#978fa8" stroke-width="1.51"/><path d="M1835,-199L1747,-58L1930,-6Z" fill="#9891a8" stroke="#9891a8" stroke-width="1.51"/><path d="M1744,97L1930,144L1930,-6Z" fill="#878ba5" stroke="#878ba5" stroke-width="1.51"/><path d="M1930,144L1740,273L1934,280Z" fill="#7183a7" stroke="#7183a7" stroke-width="1.51"/><path d="M1911,972L1766,1026L1949,1089Z" fill="#254199" stroke="#254199" stroke-width="1.51"/><path d="M1766,1026L1776,1128L1949,1089Z" fill="#263e99" stroke="#263e99" stroke-width="1.51"/><path d="M1830,367L1731,486L1950,408Z" fill="#527bab" stroke="#527bab" stroke-width="1.51"/><path d="M1934,280L1830,367L1950,408Z" fill="#597aa5" stroke="#597aa5" stroke-width="1.51"/><path d="M1221,1294L1005,1310L1367,1318Z" fill="#245c94" stroke="#245c94" stroke-width="1.51"/><path d="M1498,-236L1652,-156L1835,-199Z" fill="#9ba1b7" stroke="#9ba1b7" stroke-width="1.51"/><path d="M1744,97L1740,273L1930,144Z" fill="#7c8ba9" stroke="#7c8ba9" stroke-width="1.51"/><path d="M1752,661L1898,698L1937,592Z" fill="#356aab" stroke="#356aab" stroke-width="1.51"/><path d="M1731,486L1752,661L1937,592Z" fill="#3b74ae" stroke="#3b74ae" stroke-width="1.51"/><path d="M1740,273L1830,367L1934,280Z" fill="#6381a9" stroke="#6381a9" stroke-width="1.51"/><path d="M1747,-58L1744,97L1930,-6Z" fill="#8f91a8" stroke="#8f91a8" stroke-width="1.51"/><path d="M1757,801L1766,1026L1911,972Z" fill="#274fa1" stroke="#274fa1" stroke-width="1.51"/><path d="M1752,661L1757,801L1898,698Z" fill="#2e69ad" stroke="#2e69ad" stroke-width="1.51"/><path d="M1757,801L1653,967L1766,1026Z" fill="#2655a4" stroke="#2655a4" stroke-width="1.51"/><path d="M1652,-156L1747,-58L1835,-199Z" fill="#9999af" stroke="#9999af" stroke-width="1.51"/><path d="M1650,838L1653,967L1757,801Z" fill="#265fa9" stroke="#265fa9" stroke-width="1.51"/><path d="M1740,273L1635,403L1830,367Z" fill="#5b86ad" stroke="#5b86ad" stroke-width="1.51"/><path d="M1635,403L1731,486L1830,367Z" fill="#5183af" stroke="#5183af" stroke-width="1.51"/><path d="M1607,204L1740,273L1744,97Z" fill="#7892ac" stroke="#7892ac" stroke-width="1.51"/><path d="M1632,62L1744,97L1747,-58Z" fill="#8d98ab" stroke="#8d98ab" stroke-width="1.51"/><path d="M1731,486L1648,549L1752,661Z" fill="#3a7cb1" stroke="#3a7cb1" stroke-width="1.51"/><path d="M1752,661L1638,678L1757,801Z" fill="#2c6fb0" stroke="#2c6fb0" stroke-width="1.51"/><path d="M1599,1145L1614,1336L1769,1291Z" fill="#1f3c8c" stroke="#1f3c8c" stroke-width="1.51"/><path d="M1599,1145L1769,1291L1776,1128Z" fill="#243d94" stroke="#243d94" stroke-width="1.51"/><path d="M1766,1026L1599,1145L1776,1128Z" fill="#26459c" stroke="#26459c" stroke-width="1.51"/><path d="M1160,-220L1357,-198L1498,-236Z" fill="#a0bec4" stroke="#a0bec4" stroke-width="1.51"/><path d="M1638,678L1650,838L1757,801Z" fill="#286baf" stroke="#286baf" stroke-width="1.51"/><path d="M1653,967L1599,1145L1766,1026Z" fill="#264da0" stroke="#264da0" stroke-width="1.51"/><path d="M1598,-25L1632,62L1747,-58Z" fill="#919dac" stroke="#919dac" stroke-width="1.51"/><path d="M1648,549L1638,678L1752,661Z" fill="#3479b1" stroke="#3479b1" stroke-width="1.51"/><path d="M1632,62L1607,204L1744,97Z" fill="#8499ad" stroke="#8499ad" stroke-width="1.51"/><path d="M1652,-156L1598,-25L1747,-58Z" fill="#989fac" stroke="#989fac" stroke-width="1.51"/><path d="M1607,204L1635,403L1740,273Z" fill="#658eaf" stroke="#658eaf" stroke-width="1.51"/><path d="M1635,403L1648,549L1731,486Z" fill="#4684b2" stroke="#4684b2" stroke-width="1.51"/><path d="M1533,935L1462,1114L1599,1145Z" fill="#2655a4" stroke="#2655a4" stroke-width="1.51"/><path d="M1599,1145L1429,1269L1614,1336Z" fill="#1f4591" stroke="#1f4591" stroke-width="1.51"/><path d="M1537,193L1607,204L1632,62Z" fill="#7f9daf" stroke="#7f9daf" stroke-width="1.51"/><path d="M1607,204L1537,193L1635,403Z" fill="#6995b1" stroke="#6995b1" stroke-width="1.51"/><path d="M1537,193L1534,434L1635,403Z" fill="#5a93b2" stroke="#5a93b2" stroke-width="1.51"/><path d="M1524,705L1638,678L1648,549Z" fill="#307db4" stroke="#307db4" stroke-width="1.51"/><path d="M1468,498L1524,705L1648,549Z" fill="#3486b6" stroke="#3486b6" stroke-width="1.51"/><path d="M1635,403L1534,434L1648,549Z" fill="#488ab4" stroke="#488ab4" stroke-width="1.51"/><path d="M1524,705L1439,798L1650,838Z" fill="#2375b3" stroke="#2375b3" stroke-width="1.51"/><path d="M1638,678L1524,705L1650,838Z" fill="#2675b3" stroke="#2675b3" stroke-width="1.51"/><path d="M1498,-236L1598,-25L1652,-156Z" fill="#9aa6b4" stroke="#9aa6b4" stroke-width="1.51"/><path d="M1650,838L1533,935L1653,967Z" fill="#245fa9" stroke="#245fa9" stroke-width="1.51"/><path d="M1533,935L1599,1145L1653,967Z" fill="#2455a4" stroke="#2455a4" stroke-width="1.51"/><path d="M1534,434L1468,498L1648,549Z" fill="#418cb6" stroke="#418cb6" stroke-width="1.51"/><path d="M1439,798L1533,935L1650,838Z" fill="#236baf" stroke="#236baf" stroke-width="1.51"/><path d="M1498,-236L1451,-30L1598,-25Z" fill="#9aabb3" stroke="#9aabb3" stroke-width="1.51"/><path d="M1598,-25L1521,37L1632,62Z" fill="#8ea2af" stroke="#8ea2af" stroke-width="1.51"/><path d="M1521,37L1537,193L1632,62Z" fill="#87a1b0" stroke="#87a1b0" stroke-width="1.51"/><path d="M1462,1114L1429,1269L1599,1145Z" fill="#264e9e" stroke="#264e9e" stroke-width="1.51"/><path d="M1429,1269L1367,1318L1614,1336Z" fill="#1c478b" stroke="#1c478b" stroke-width="1.51"/><path d="M1451,-30L1521,37L1598,-25Z" fill="#92a8b1" stroke="#92a8b1" stroke-width="1.51"/><path d="M734,-263L1030,-197L1160,-220Z" fill="#aad8ca" stroke="#aad8ca" stroke-width="1.51"/><path d="M1357,-198L1451,-30L1498,-236Z" fill="#9db4bb" stroke="#9db4bb" stroke-width="1.51"/><path d="M1468,498L1380,577L1524,705Z" fill="#328dba" stroke="#328dba" stroke-width="1.51"/><path d="M1439,798L1387,826L1533,935Z" fill="#2373b3" stroke="#2373b3" stroke-width="1.51"/><path d="M1325,950L1462,1114L1533,935Z" fill="#2563ab" stroke="#2563ab" stroke-width="1.51"/><path d="M1320,400L1468,498L1534,434Z" fill="#4999b9" stroke="#4999b9" stroke-width="1.51"/><path d="M1521,37L1326,88L1537,193Z" fill="#87aab4" stroke="#87aab4" stroke-width="1.51"/><path d="M1326,88L1320,203L1537,193Z" fill="#7fadb6" stroke="#7fadb6" stroke-width="1.51"/><path d="M1320,400L1534,434L1537,193Z" fill="#5a9cb6" stroke="#5a9cb6" stroke-width="1.51"/><path d="M1320,203L1320,400L1537,193Z" fill="#6ba7b8" stroke="#6ba7b8" stroke-width="1.51"/><path d="M1387,826L1325,950L1533,935Z" fill="#2370b1" stroke="#2370b1" stroke-width="1.51"/><path d="M1451,-30L1326,88L1521,37Z" fill="#8fafb5" stroke="#8fafb5" stroke-width="1.51"/><path d="M1318,653L1439,798L1524,705Z" fill="#2585ba" stroke="#2585ba" stroke-width="1.51"/><path d="M1380,577L1318,653L1524,705Z" fill="#2c8dbb" stroke="#2c8dbb" stroke-width="1.51"/><path d="M1340,1187L1429,1269L1462,1114Z" fill="#27539f" stroke="#27539f" stroke-width="1.51"/><path d="M1357,-198L1306,-88L1451,-30Z" fill="#9cb9b9" stroke="#9cb9b9" stroke-width="1.51"/><path d="M1325,950L1340,1187L1462,1114Z" fill="#2860a9" stroke="#2860a9" stroke-width="1.51"/><path d="M1320,400L1380,577L1468,498Z" fill="#409abc" stroke="#409abc" stroke-width="1.51"/><path d="M1318,653L1387,826L1439,798Z" fill="#2185bb" stroke="#2185bb" stroke-width="1.51"/><path d="M1306,-88L1326,88L1451,-30Z" fill="#95b7b7" stroke="#95b7b7" stroke-width="1.51"/><path d="M1340,1187L1367,1318L1429,1269Z" fill="#225296" stroke="#225296" stroke-width="1.51"/><path d="M-181,-156L164,-207L235,-227Z" fill="#f1fabd" stroke="#f1fabd" stroke-width="1.51"/><path d="M1139,716L1130,812L1318,653Z" fill="#2596c1" stroke="#2596c1" stroke-width="1.51"/><path d="M1325,950L1174,1137L1340,1187Z" fill="#2a68ad" stroke="#2a68ad" stroke-width="1.51"/><path d="M1320,400L1220,573L1380,577Z" fill="#39a1c0" stroke="#39a1c0" stroke-width="1.51"/><path d="M1318,653L1130,812L1387,826Z" fill="#1f8dbe" stroke="#1f8dbe" stroke-width="1.51"/><path d="M1204,936L1325,950L1387,826Z" fill="#2379b5" stroke="#2379b5" stroke-width="1.51"/><path d="M1130,812L1204,936L1387,826Z" fill="#2384ba" stroke="#2384ba" stroke-width="1.51"/><path d="M1194,231L1320,400L1320,203Z" fill="#68b1bd" stroke="#68b1bd" stroke-width="1.51"/><path d="M1340,1187L1221,1294L1367,1318Z" fill="#225797" stroke="#225797" stroke-width="1.51"/><path d="M1220,573L1318,653L1380,577Z" fill="#2f9ac0" stroke="#2f9ac0" stroke-width="1.51"/><path d="M1204,936L1174,1137L1325,950Z" fill="#2973b2" stroke="#2973b2" stroke-width="1.51"/><path d="M1306,-88L1188,38L1326,88Z" fill="#93beba" stroke="#93beba" stroke-width="1.51"/><path d="M1160,-220L1306,-88L1357,-198Z" fill="#a0c3c2" stroke="#a0c3c2" stroke-width="1.51"/><path d="M1132,431L1220,573L1320,400Z" fill="#45a9c1" stroke="#45a9c1" stroke-width="1.51"/><path d="M1194,231L1320,203L1326,88Z" fill="#7db7bb" stroke="#7db7bb" stroke-width="1.51"/><path d="M1174,1137L1221,1294L1340,1187Z" fill="#2960a3" stroke="#2960a3" stroke-width="1.51"/><path d="M1194,231L1132,431L1320,400Z" fill="#59b0bf" stroke="#59b0bf" stroke-width="1.51"/><path d="M1188,38L1194,231L1326,88Z" fill="#88bebb" stroke="#88bebb" stroke-width="1.51"/><path d="M1220,573L1139,716L1318,653Z" fill="#2b9cc2" stroke="#2b9cc2" stroke-width="1.51"/><path d="M1139,-9L1188,38L1306,-88Z" fill="#98c4bb" stroke="#98c4bb" stroke-width="1.51"/><path d="M1160,-220L1139,-9L1306,-88Z" fill="#9fc7bd" stroke="#9fc7bd" stroke-width="1.51"/><path d="M734,-263L849,-199L1030,-197Z" fill="#b1ddc7" stroke="#b1ddc7" stroke-width="1.51"/><path d="M1030,-197L1139,-9L1160,-220Z" fill="#a4cec1" stroke="#a4cec1" stroke-width="1.51"/><path d="M1062,1126L1005,1310L1174,1137Z" fill="#356aa7" stroke="#356aa7" stroke-width="1.51"/><path d="M1188,38L998,91L1194,231Z" fill="#8bc5bc" stroke="#8bc5bc" stroke-width="1.51"/><path d="M1063,285L1132,431L1194,231Z" fill="#63b8be" stroke="#63b8be" stroke-width="1.51"/><path d="M1062,1126L1174,1137L1204,936Z" fill="#3172b0" stroke="#3172b0" stroke-width="1.51"/><path d="M994,946L1062,1126L1204,936Z" fill="#327cb3" stroke="#327cb3" stroke-width="1.51"/><path d="M1076,590L1139,716L1220,573Z" fill="#32a2c2" stroke="#32a2c2" stroke-width="1.51"/><path d="M1132,431L1076,590L1220,573Z" fill="#3babc3" stroke="#3babc3" stroke-width="1.51"/><path d="M1174,1137L1005,1310L1221,1294Z" fill="#2d639e" stroke="#2d639e" stroke-width="1.51"/><path d="M1030,-197L1035,-21L1139,-9Z" fill="#a2cfbb" stroke="#a2cfbb" stroke-width="1.51"/><path d="M998,91L1063,285L1194,231Z" fill="#7dc2bd" stroke="#7dc2bd" stroke-width="1.51"/><path d="M1130,812L1087,811L1204,936Z" fill="#2b8bbb" stroke="#2b8bbb" stroke-width="1.51"/><path d="M1087,811L994,946L1204,936Z" fill="#2e88b8" stroke="#2e88b8" stroke-width="1.51"/><path d="M1139,-9L998,91L1188,38Z" fill="#95c9bc" stroke="#95c9bc" stroke-width="1.51"/><path d="M235,-227L564,-212L734,-263Z" fill="#d1ecc3" stroke="#d1ecc3" stroke-width="1.51"/><path d="M1087,811L1130,812L1139,716Z" fill="#2a95bf" stroke="#2a95bf" stroke-width="1.51"/><path d="M1035,-21L998,91L1139,-9Z" fill="#98cdbc" stroke="#98cdbc" stroke-width="1.51"/><path d="M1005,425L1076,590L1132,431Z" fill="#49b2c3" stroke="#49b2c3" stroke-width="1.51"/><path d="M1063,285L1005,425L1132,431Z" fill="#5ab8c0" stroke="#5ab8c0" stroke-width="1.51"/><path d="M993,659L1087,811L1139,716Z" fill="#2e9ec2" stroke="#2e9ec2" stroke-width="1.51"/><path d="M1076,590L993,659L1139,716Z" fill="#34a4c3" stroke="#34a4c3" stroke-width="1.51"/><path d="M717,1307L574,1320L834,1333Z" fill="#4c7191" stroke="#4c7191" stroke-width="1.51"/><path d="M994,946L935,1034L1062,1126Z" fill="#397eb2" stroke="#397eb2" stroke-width="1.51"/><path d="M998,91L919,214L1063,285Z" fill="#82c9be" stroke="#82c9be" stroke-width="1.51"/><path d="M1005,425L918,528L1076,590Z" fill="#45b5c4" stroke="#45b5c4" stroke-width="1.51"/><path d="M929,882L994,946L1087,811Z" fill="#3490ba" stroke="#3490ba" stroke-width="1.51"/><path d="M993,659L929,882L1087,811Z" fill="#319cc0" stroke="#319cc0" stroke-width="1.51"/><path d="M859,1157L1005,1310L1062,1126Z" fill="#3b70a6" stroke="#3b70a6" stroke-width="1.51"/><path d="M906,337L1005,425L1063,285Z" fill="#61bec0" stroke="#61bec0" stroke-width="1.51"/><path d="M918,528L993,659L1076,590Z" fill="#3cafc4" stroke="#3cafc4" stroke-width="1.51"/><path d="M918,528L931,640L993,659Z" fill="#3fb0c4" stroke="#3fb0c4" stroke-width="1.51"/><path d="M1030,-197L854,-33L1035,-21Z" fill="#a5d5bc" stroke="#a5d5bc" stroke-width="1.51"/><path d="M919,214L906,337L1063,285Z" fill="#71c5bf" stroke="#71c5bf" stroke-width="1.51"/><path d="M935,1034L859,1157L1062,1126Z" fill="#3e7aaf" stroke="#3e7aaf" stroke-width="1.51"/><path d="M931,640L929,882L993,659Z" fill="#36a5c2" stroke="#36a5c2" stroke-width="1.51"/><path d="M854,-33L903,105L998,91Z" fill="#9bd3bc" stroke="#9bd3bc" stroke-width="1.51"/><path d="M849,-199L854,-33L1030,-197Z" fill="#acdac1" stroke="#acdac1" stroke-width="1.51"/><path d="M854,-33L998,91L1035,-21Z" fill="#9cd3bc" stroke="#9cd3bc" stroke-width="1.51"/><path d="M903,105L919,214L998,91Z" fill="#8fd0bc" stroke="#8fd0bc" stroke-width="1.51"/><path d="M762,713L929,882L931,640Z" fill="#41a7c1" stroke="#41a7c1" stroke-width="1.51"/><path d="M859,1157L834,1333L1005,1310Z" fill="#3d6e9b" stroke="#3d6e9b" stroke-width="1.51"/><path d="M906,337L918,528L1005,425Z" fill="#57bcc2" stroke="#57bcc2" stroke-width="1.51"/><path d="M929,882L935,1034L994,946Z" fill="#3989b6" stroke="#3989b6" stroke-width="1.51"/><path d="M906,337L723,391L918,528Z" fill="#63c0c0" stroke="#63c0c0" stroke-width="1.51"/><path d="M723,391L726,528L918,528Z" fill="#60bfc1" stroke="#60bfc1" stroke-width="1.51"/><path d="M762,713L723,794L929,882Z" fill="#4aa2bd" stroke="#4aa2bd" stroke-width="1.51"/><path d="M918,528L726,528L931,640Z" fill="#4db7c3" stroke="#4db7c3" stroke-width="1.51"/><path d="M726,528L762,713L931,640Z" fill="#50b4c1" stroke="#50b4c1" stroke-width="1.51"/><path d="M929,882L754,953L935,1034Z" fill="#448cb5" stroke="#448cb5" stroke-width="1.51"/><path d="M754,953L859,1157L935,1034Z" fill="#4983b1" stroke="#4983b1" stroke-width="1.51"/><path d="M747,187L906,337L919,214Z" fill="#81cbbd" stroke="#81cbbd" stroke-width="1.51"/><path d="M723,794L754,953L929,882Z" fill="#4c99b8" stroke="#4c99b8" stroke-width="1.51"/><path d="M903,105L770,115L919,214Z" fill="#94d2bb" stroke="#94d2bb" stroke-width="1.51"/><path d="M854,-33L770,115L903,105Z" fill="#9fd6bb" stroke="#9fd6bb" stroke-width="1.51"/><path d="M770,115L747,187L919,214Z" fill="#93d2bb" stroke="#93d2bb" stroke-width="1.51"/><path d="M747,187L723,391L906,337Z" fill="#7acabd" stroke="#7acabd" stroke-width="1.51"/><path d="M734,-263L686,-38L849,-199Z" fill="#b7e0c0" stroke="#b7e0c0" stroke-width="1.51"/><path d="M849,-199L686,-38L854,-33Z" fill="#b1ddba" stroke="#b1ddba" stroke-width="1.51"/><path d="M686,-38L770,115L854,-33Z" fill="#a9dab9" stroke="#a9dab9" stroke-width="1.51"/><path d="M754,953L693,1140L859,1157Z" fill="#5282ad" stroke="#5282ad" stroke-width="1.51"/><path d="M717,1307L834,1333L859,1157Z" fill="#47719a" stroke="#47719a" stroke-width="1.51"/><path d="M693,1140L717,1307L859,1157Z" fill="#5178a3" stroke="#5178a3" stroke-width="1.51"/><path d="M-181,-156L31,-172L164,-207Z" fill="#f3fabe" stroke="#f3fabe" stroke-width="1.51"/><path d="M564,-212L628,-43L686,-38Z" fill="#bee4b8" stroke="#bee4b8" stroke-width="1.51"/><path d="M632,511L544,645L726,528Z" fill="#68c0bf" stroke="#68c0bf" stroke-width="1.51"/><path d="M564,-212L686,-38L734,-263Z" fill="#bde4bf" stroke="#bde4bf" stroke-width="1.51"/><path d="M588,270L723,391L747,187Z" fill="#87cfbb" stroke="#87cfbb" stroke-width="1.51"/><path d="M543,1037L693,1140L754,953Z" fill="#5c8aae" stroke="#5c8aae" stroke-width="1.51"/><path d="M723,794L587,819L754,953Z" fill="#589fb8" stroke="#589fb8" stroke-width="1.51"/><path d="M726,528L544,645L762,713Z" fill="#5eb9bf" stroke="#5eb9bf" stroke-width="1.51"/><path d="M538,67L747,187L770,115Z" fill="#a4dab8" stroke="#a4dab8" stroke-width="1.51"/><path d="M686,-38L538,67L770,115Z" fill="#addeb7" stroke="#addeb7" stroke-width="1.51"/><path d="M723,391L632,511L726,528Z" fill="#6ac3bf" stroke="#6ac3bf" stroke-width="1.51"/><path d="M544,645L723,794L762,713Z" fill="#5ab0bf" stroke="#5ab0bf" stroke-width="1.51"/><path d="M628,-43L538,67L686,-38Z" fill="#b7e2b6" stroke="#b7e2b6" stroke-width="1.51"/><path d="M543,1037L616,1142L693,1140Z" fill="#6385ab" stroke="#6385ab" stroke-width="1.51"/><path d="M693,1140L616,1142L717,1307Z" fill="#597ba3" stroke="#597ba3" stroke-width="1.51"/><path d="M544,645L587,819L723,794Z" fill="#62afbd" stroke="#62afbd" stroke-width="1.51"/><path d="M618,421L632,511L723,391Z" fill="#72c7be" stroke="#72c7be" stroke-width="1.51"/><path d="M587,819L543,1037L754,953Z" fill="#6097b3" stroke="#6097b3" stroke-width="1.51"/><path d="M538,67L588,270L747,187Z" fill="#a1d9b8" stroke="#a1d9b8" stroke-width="1.51"/><path d="M616,1142L574,1320L717,1307Z" fill="#597899" stroke="#597899" stroke-width="1.51"/><path d="M588,270L618,421L723,391Z" fill="#7fccbc" stroke="#7fccbc" stroke-width="1.51"/><path d="M235,-227L455,-162L564,-212Z" fill="#d9f0bf" stroke="#d9f0bf" stroke-width="1.51"/><path d="M431,974L543,1037L587,819Z" fill="#6f9ab2" stroke="#6f9ab2" stroke-width="1.51"/><path d="M538,67L457,248L588,270Z" fill="#a9dcb7" stroke="#a9dcb7" stroke-width="1.51"/><path d="M486,1105L574,1320L616,1142Z" fill="#6880a4" stroke="#6880a4" stroke-width="1.51"/><path d="M588,270L462,391L618,421Z" fill="#8ad0bb" stroke="#8ad0bb" stroke-width="1.51"/><path d="M564,-212L453,-104L628,-43Z" fill="#c8e8b9" stroke="#c8e8b9" stroke-width="1.51"/><path d="M618,421L436,515L632,511Z" fill="#7bc9be" stroke="#7bc9be" stroke-width="1.51"/><path d="M436,515L544,645L632,511Z" fill="#77c5be" stroke="#77c5be" stroke-width="1.51"/><path d="M411,885L431,974L587,819Z" fill="#76a3b4" stroke="#76a3b4" stroke-width="1.51"/><path d="M544,645L491,657L587,819Z" fill="#70b7bd" stroke="#70b7bd" stroke-width="1.51"/><path d="M462,391L436,515L618,421Z" fill="#87cebc" stroke="#87cebc" stroke-width="1.51"/><path d="M453,-104L538,67L628,-43Z" fill="#c2e6b5" stroke="#c2e6b5" stroke-width="1.51"/><path d="M455,-162L453,-104L564,-212Z" fill="#d0ecbc" stroke="#d0ecbc" stroke-width="1.51"/><path d="M486,1105L418,1312L574,1320Z" fill="#6c7e9a" stroke="#6c7e9a" stroke-width="1.51"/><path d="M543,1037L486,1105L616,1142Z" fill="#6c89ab" stroke="#6c89ab" stroke-width="1.51"/><path d="M429,98L457,248L538,67Z" fill="#b9e3b6" stroke="#b9e3b6" stroke-width="1.51"/><path d="M491,657L411,885L587,819Z" fill="#74b0ba" stroke="#74b0ba" stroke-width="1.51"/><path d="M457,248L462,391L588,270Z" fill="#99d6b9" stroke="#99d6b9" stroke-width="1.51"/><path d="M131,1275L-142,1329L251,1301Z" fill="#888590" stroke="#888590" stroke-width="1.51"/><path d="M436,515L491,657L544,645Z" fill="#7bc3be" stroke="#7bc3be" stroke-width="1.51"/><path d="M-1,1280L-142,1329L131,1275Z" fill="#8b8795" stroke="#8b8795" stroke-width="1.51"/><path d="M453,-104L429,98L538,67Z" fill="#c5e7b5" stroke="#c5e7b5" stroke-width="1.51"/><path d="M431,974L486,1105L543,1037Z" fill="#7492ad" stroke="#7492ad" stroke-width="1.51"/><path d="M263,685L248,802L411,885Z" fill="#8ab7b9" stroke="#8ab7b9" stroke-width="1.51"/><path d="M314,-35L429,98L453,-104Z" fill="#d0ecb4" stroke="#d0ecb4" stroke-width="1.51"/><path d="M257,1122L418,1312L486,1105Z" fill="#7e87a4" stroke="#7e87a4" stroke-width="1.51"/><path d="M431,974L304,1022L486,1105Z" fill="#7e96ad" stroke="#7e96ad" stroke-width="1.51"/><path d="M436,515L263,685L491,657Z" fill="#87c6bd" stroke="#87c6bd" stroke-width="1.51"/><path d="M263,685L411,885L491,657Z" fill="#83bbbc" stroke="#83bbbc" stroke-width="1.51"/><path d="M429,98L326,211L457,248Z" fill="#b9e3b6" stroke="#b9e3b6" stroke-width="1.51"/><path d="M304,1022L257,1122L486,1105Z" fill="#8493aa" stroke="#8493aa" stroke-width="1.51"/><path d="M257,1122L251,1301L418,1312Z" fill="#7f8599" stroke="#7f8599" stroke-width="1.51"/><path d="M329,120L326,211L429,98Z" fill="#c5e8b5" stroke="#c5e8b5" stroke-width="1.51"/><path d="M247,555L263,685L436,515Z" fill="#91ccbc" stroke="#91ccbc" stroke-width="1.51"/><path d="M275,412L436,515L462,391Z" fill="#96d3bb" stroke="#96d3bb" stroke-width="1.51"/><path d="M457,248L326,211L462,391Z" fill="#a7dcb7" stroke="#a7dcb7" stroke-width="1.51"/><path d="M326,211L275,412L462,391Z" fill="#a5dbb8" stroke="#a5dbb8" stroke-width="1.51"/><path d="M314,-35L453,-104L455,-162Z" fill="#d6efb5" stroke="#d6efb5" stroke-width="1.51"/><path d="M235,-227L314,-35L455,-162Z" fill="#dff2b8" stroke="#dff2b8" stroke-width="1.51"/><path d="M314,-35L329,120L429,98Z" fill="#cdebb4" stroke="#cdebb4" stroke-width="1.51"/><path d="M275,412L247,555L436,515Z" fill="#97d3bc" stroke="#97d3bc" stroke-width="1.51"/><path d="M411,885L304,1022L431,974Z" fill="#819eb0" stroke="#819eb0" stroke-width="1.51"/><path d="M248,802L304,1022L411,885Z" fill="#87a8b3" stroke="#87a8b3" stroke-width="1.51"/><path d="M248,802L177,999L304,1022Z" fill="#8ca4b0" stroke="#8ca4b0" stroke-width="1.51"/><path d="M235,-227L164,-207L314,-35Z" fill="#e6f5b9" stroke="#e6f5b9" stroke-width="1.51"/><path d="M164,-207L181,-7L314,-35Z" fill="#e3f4b3" stroke="#e3f4b3" stroke-width="1.51"/><path d="M140,288L275,412L326,211Z" fill="#b2e0b7" stroke="#b2e0b7" stroke-width="1.51"/><path d="M314,-35L181,-7L329,120Z" fill="#d6efb3" stroke="#d6efb3" stroke-width="1.51"/><path d="M181,-7L166,129L329,120Z" fill="#d4eeb3" stroke="#d4eeb3" stroke-width="1.51"/><path d="M166,129L326,211L329,120Z" fill="#c9e9b4" stroke="#c9e9b4" stroke-width="1.51"/><path d="M166,129L140,288L326,211Z" fill="#c4e7b5" stroke="#c4e7b5" stroke-width="1.51"/><path d="M131,1275L251,1301L257,1122Z" fill="#86889b" stroke="#86889b" stroke-width="1.51"/><path d="M182,1100L257,1122L304,1022Z" fill="#8b95aa" stroke="#8b95aa" stroke-width="1.51"/><path d="M177,999L182,1100L304,1022Z" fill="#8d99ac" stroke="#8d99ac" stroke-width="1.51"/><path d="M124,817L177,999L248,802Z" fill="#92afb4" stroke="#92afb4" stroke-width="1.51"/><path d="M182,1100L131,1275L257,1122Z" fill="#8e8ca5" stroke="#8e8ca5" stroke-width="1.51"/><path d="M247,555L146,544L263,685Z" fill="#98cdbc" stroke="#98cdbc" stroke-width="1.51"/><path d="M146,544L121,700L263,685Z" fill="#99cabb" stroke="#99cabb" stroke-width="1.51"/><path d="M121,700L248,802L263,685Z" fill="#93c1bb" stroke="#93c1bb" stroke-width="1.51"/><path d="M146,544L247,555L275,412Z" fill="#9ed5bb" stroke="#9ed5bb" stroke-width="1.51"/><path d="M117,341L146,544L275,412Z" fill="#a8dab9" stroke="#a8dab9" stroke-width="1.51"/><path d="M140,288L117,341L275,412Z" fill="#b0deb7" stroke="#b0deb7" stroke-width="1.51"/><path d="M121,700L124,817L248,802Z" fill="#95bdb9" stroke="#95bdb9" stroke-width="1.51"/><path d="M117,341L-40,511L146,544Z" fill="#acdaba" stroke="#acdaba" stroke-width="1.51"/><path d="M-16,190L140,288L166,129Z" fill="#cceab4" stroke="#cceab4" stroke-width="1.51"/><path d="M124,817L-24,970L177,999Z" fill="#97a9b1" stroke="#97a9b1" stroke-width="1.51"/><path d="M-24,970L26,1137L177,999Z" fill="#989dac" stroke="#989dac" stroke-width="1.51"/><path d="M31,-172L-54,-97L181,-7Z" fill="#eef8b3" stroke="#eef8b3" stroke-width="1.51"/><path d="M-49,97L166,129L181,-7Z" fill="#ddf1b2" stroke="#ddf1b2" stroke-width="1.51"/><path d="M164,-207L31,-172L181,-7Z" fill="#ebf8b6" stroke="#ebf8b6" stroke-width="1.51"/><path d="M177,999L26,1137L182,1100Z" fill="#9398aa" stroke="#9398aa" stroke-width="1.51"/><path d="M26,1137L131,1275L182,1100Z" fill="#928ea4" stroke="#928ea4" stroke-width="1.51"/><path d="M-54,-97L-49,97L181,-7Z" fill="#e7f6b4" stroke="#e7f6b4" stroke-width="1.51"/><path d="M-3,340L-40,511L117,341Z" fill="#b4dfbb" stroke="#b4dfbb" stroke-width="1.51"/><path d="M-26,653L121,700L146,544Z" fill="#a0cdbb" stroke="#a0cdbb" stroke-width="1.51"/><path d="M-49,97L-16,190L166,129Z" fill="#d9f0b5" stroke="#d9f0b5" stroke-width="1.51"/><path d="M26,1137L-1,1280L131,1275Z" fill="#908b9b" stroke="#908b9b" stroke-width="1.51"/><path d="M-40,511L-26,653L146,544Z" fill="#a5d4bd" stroke="#a5d4bd" stroke-width="1.51"/><path d="M121,700L-49,814L124,817Z" fill="#9cbeb9" stroke="#9cbeb9" stroke-width="1.51"/><path d="M-49,814L-24,970L124,817Z" fill="#9bb3b7" stroke="#9bb3b7" stroke-width="1.51"/><path d="M-3,340L117,341L140,288Z" fill="#bae2b6" stroke="#bae2b6" stroke-width="1.51"/><path d="M-16,190L-3,340L140,288Z" fill="#c4e6b7" stroke="#c4e6b7" stroke-width="1.51"/><path d="M-26,653L-49,814L121,700Z" fill="#9fc5be" stroke="#9fc5be" stroke-width="1.51"/><path d="M-172,1105L-1,1280L26,1137Z" fill="#9890aa" stroke="#9890aa" stroke-width="1.51"/><path d="M-24,970L-172,1105L26,1137Z" fill="#9a9bb2" stroke="#9a9bb2" stroke-width="1.51"/><path d="M-181,-156L-54,-97L31,-172Z" fill="#f4fbc0" stroke="#f4fbc0" stroke-width="1.51"/><path d="M-54,-97L-209,-16L-49,97Z" fill="#ecf8bc" stroke="#ecf8bc" stroke-width="1.51"/><path d="M-158,670L-49,814L-26,653Z" fill="#a1c8c3" stroke="#a1c8c3" stroke-width="1.51"/><path d="M-49,814L-151,854L-24,970Z" fill="#9db2bc" stroke="#9db2bc" stroke-width="1.51"/><path d="M-202,429L-40,511L-3,340Z" fill="#b5dfc2" stroke="#b5dfc2" stroke-width="1.51"/><path d="M-16,190L-177,205L-3,340Z" fill="#cceabd" stroke="#cceabd" stroke-width="1.51"/><path d="M-172,1105L-142,1329L-1,1280Z" fill="#938ca3" stroke="#938ca3" stroke-width="1.51"/><path d="M-40,511L-158,670L-26,653Z" fill="#a6d1c4" stroke="#a6d1c4" stroke-width="1.51"/><path d="M-177,205L-202,429L-3,340Z" fill="#c0e5c3" stroke="#c0e5c3" stroke-width="1.51"/><path d="M-206,560L-158,670L-40,511Z" fill="#a9d5c8" stroke="#a9d5c8" stroke-width="1.51"/><path d="M-194,978L-172,1105L-24,970Z" fill="#9ca2b8" stroke="#9ca2b8" stroke-width="1.51"/><path d="M-49,97L-177,205L-16,190Z" fill="#d9f0bc" stroke="#d9f0bc" stroke-width="1.51"/><path d="M-151,854L-194,978L-24,970Z" fill="#9dabbb" stroke="#9dabbb" stroke-width="1.51"/><path d="M-158,670L-151,854L-49,814Z" fill="#a0c1c4" stroke="#a0c1c4" stroke-width="1.51"/><path d="M-204,131L-177,205L-49,97Z" fill="#def2c0" stroke="#def2c0" stroke-width="1.51"/><path d="M-209,-16L-204,131L-49,97Z" fill="#e6f5c0" stroke="#e6f5c0" stroke-width="1.51"/><path d="M-202,429L-206,560L-40,511Z" fill="#afdbc8" stroke="#afdbc8" stroke-width="1.51"/><path d="M-181,-156L-209,-16L-54,-97Z" fill="#f4fbc0" stroke="#f4fbc0" stroke-width="1.51"/><path d="M-172,1105L-194,978L-142,1329Z" fill="#9c94b5" stroke="#9c94b5" stroke-width="1.51"/><path d="M-158,670L-206,560L-151,854Z" fill="#a4cac9" stroke="#a4cac9" stroke-width="1.51"/><path d="M-206,560L-194,978L-151,854Z" fill="#a1bfc7" stroke="#a1bfc7" stroke-width="1.51"/><path d="M-204,131L-202,429L-177,205Z" fill="#ceebc6" stroke="#ceebc6" stroke-width="1.51"/><path d="M-209,-16L-206,560L-204,131Z" fill="#d3edc6" stroke="#d3edc6" stroke-width="1.51"/><path d="M-204,131L-206,560L-202,429Z" fill="#bde4c9" stroke="#bde4c9" stroke-width="1.51"/></svg>